<?xml version="1.0" encoding="UTF-8" standalone="no"?>
<svg
   version="1.1"
   width="7.0598001mm"
   height="7.3903999mm"
   viewBox="0 0 7.0598002 7.3903999"
   id="svg146"
   xmlns="http://www.w3.org/2000/svg"
   xmlns:svg="http://www.w3.org/2000/svg"
   xmlns:rdf="http://www.w3.org/1999/02/22-rdf-syntax-ns#"
   xmlns:cc="http://creativecommons.org/ns#"
   xmlns:dc="http://purl.org/dc/elements/1.1/">
  <defs
     id="defs146" />
  <title
     id="title1">SVG Image created as mini-receiver-B_Silkscreen.svg date 2025/05/27 13:08:58 </title>
  <desc
     id="desc1">Image generated by PCBNEW </desc>
  <g
     style="fill:#ffffff;fill-opacity:1;stroke:#000000;stroke-linecap:round;stroke-linejoin:round;stroke-opacity:1"
     transform="matrix(-1,0,0,1,143.3714,-81.1719)"
     id="g45">
    <path
       style="fill:#ffffff;fill-opacity:1;fill-rule:evenodd;stroke:none"
       d="m 138.8714,84.9466 -0.0926,0.0132 0.0132,-0.0529 h 0.0794 z"
       id="path1" />
    <path
       style="fill:#ffffff;fill-opacity:1;fill-rule:evenodd;stroke:none"
       d="m 136.4491,87.3204 0.007,4e-4 0.007,7e-4 0.007,8e-4 0.0158,0.0024 0.0175,0.0031 0.0264,0.0265 -0.0196,-2e-4 -0.0197,-4e-4 -0.0196,-8e-4 -0.0196,-0.0011 -0.008,6e-4 -0.008,8e-4 -0.007,9e-4 -0.007,0.0011 -0.006,0.0013 -0.006,0.0016 -0.005,0.0019 -0.005,0.0022 -0.005,0.0025 -0.005,0.0029 -0.005,0.0032 -0.005,0.0037 -0.005,0.0042 -0.005,0.0046 -0.006,0.0051 -0.006,0.0056 -0.0264,0.0397 -0.0132,-0.0397 0.0122,-0.0125 0.0113,-0.0112 0.0105,-0.01 0.01,-0.0088 0.005,-0.004 0.005,-0.0037 0.005,-0.0034 0.005,-0.0031 0.005,-0.0029 0.005,-0.0026 0.005,-0.0023 0.005,-0.002 0.005,-0.0018 0.005,-0.0015 0.005,-0.0013 0.005,-0.001 0.005,-8e-4 0.006,-5e-4 0.006,-3e-4 0.006,-1e-4 z"
       id="path2" />
    <path
       style="fill:#ffffff;fill-opacity:1;fill-rule:evenodd;stroke:none"
       d="m 137.9408,85.73 0.005,5e-4 0.005,6e-4 0.005,9e-4 0.005,0.0012 0.005,0.0014 0.006,0.0016 0.006,0.002 0.006,0.0021 -0.004,0.004 -0.004,0.0036 -0.004,0.0034 -0.004,0.0032 -0.004,0.0029 -0.004,0.0027 -0.004,0.0025 -0.004,0.0023 -0.004,0.002 -0.004,0.0019 -0.009,0.0033 -0.009,0.0026 -0.009,0.002 -0.009,0.0016 -0.01,0.0011 -0.01,7e-4 -0.01,4e-4 -0.0206,4e-4 h -0.0214 l -0.0488,-9e-4 v -0.0132 l 0.0347,-0.0104 0.0347,-0.0103 0.0391,-0.0116 0.007,-0.0013 0.006,-10e-4 0.006,-9e-4 0.006,-7e-4 0.005,-5e-4 0.005,-2e-4 0.005,-1e-4 z"
       id="path3" />
    <path
       style="fill:#ffffff;fill-opacity:1;fill-rule:evenodd;stroke:none"
       d="m 139.4667,81.7054 v 0.0927 l 0.0132,0.0264 -0.0264,0.0265 -0.0133,-0.0318 -0.0132,-0.0319 -0.0149,-0.0358 -0.004,-0.0109 -10e-4,-0.0046 -0.001,-0.0041 -0.001,-0.0038 -9e-4,-0.0035 -8e-4,-0.0034 -6e-4,-0.0034 -5e-4,-0.0034 -3e-4,-0.0037 -3e-4,-0.0039 -2e-4,-0.0044 -1e-4,-0.0102 V 81.679 Z"
       id="path4" />
    <path
       style="fill:#ffffff;fill-opacity:1;fill-rule:evenodd;stroke:none"
       d="m 137.6745,87.3399 0.0327,0.0012 0.0132,0.0264 -0.0386,0.0054 -0.0507,0.007 -0.0502,0.007 -0.025,0.0041 -0.0124,0.0022 -0.0122,0.0024 -0.0123,0.0025 -0.0122,0.0028 -0.0122,0.003 -0.0123,0.0033 0.006,-0.0066 0.006,-0.0061 0.006,-0.0058 0.006,-0.0053 0.006,-0.0049 0.006,-0.0046 0.006,-0.0042 0.006,-0.0039 0.007,-0.0035 0.006,-0.0033 0.007,-0.0029 0.007,-0.0026 0.007,-0.0023 0.007,-0.0021 0.0138,-0.0035 0.0141,-0.0025 0.0145,-0.0018 0.0147,-0.001 0.0151,-6e-4 h 0.0155 z"
       id="path5" />
    <path
       style="fill:#ffffff;fill-opacity:1;fill-rule:evenodd;stroke:none"
       d="m 140.1017,84.7878 -0.0132,0.0662 -0.0529,-0.0265 0.0264,-0.0529 z"
       id="path6" />
    <path
       style="fill:#ffffff;fill-opacity:1;fill-rule:evenodd;stroke:none"
       d="m 140.4806,85.1464 0.007,0.0012 0.005,0.001 0.005,0.0012 0.005,0.0014 0.006,0.0017 0.007,0.0024 0.009,0.003 0.0133,0.0396 -0.0132,0.0044 -0.005,0.0017 -0.005,0.0014 -0.004,0.0011 -0.004,8e-4 -0.004,5e-4 -0.003,2e-4 -0.003,-1e-4 -0.003,-4e-4 -0.003,-8e-4 -0.003,-0.001 -0.004,-0.0013 -0.004,-0.0016 -0.01,-0.004 -0.0239,-0.0141 0.0264,-0.0397 z"
       id="path7" />
    <path
       style="fill:#ffffff;fill-opacity:1;fill-rule:evenodd;stroke:none"
       d="m 136.794,81.172 0.004,2e-4 0.004,4e-4 0.005,4e-4 0.0117,0.0014 0.015,0.0019 0.006,0.0051 0.006,0.0052 0.006,0.0053 0.006,0.0055 0.006,0.0055 0.006,0.0057 0.011,0.0116 0.0108,0.0119 0.0105,0.0121 0.021,0.0247 0.0247,0.0276 0.0248,0.0276 0.0242,0.0268 0.009,0.0092 0.009,0.0091 0.009,0.0088 0.009,0.0087 0.009,0.0084 0.009,0.0084 0.0192,0.0161 0.0196,0.0157 0.02,0.0153 0.0203,0.0151 0.0207,0.0149 0.0226,0.0162 0.0674,0.0471 0.0682,0.045 0.0688,0.0429 0.0695,0.0411 0.0702,0.0392 0.0709,0.0375 0.0716,0.0359 0.0723,0.0343 0.073,0.0329 0.0737,0.0316 0.1496,0.0596 0.1525,0.0554 0.1554,0.0519 0.0744,0.0256 0.0715,0.0278 0.0688,0.0301 0.066,0.0325 0.0634,0.0348 0.061,0.0374 0.0586,0.04 0.0563,0.0426 0.0541,0.0453 0.0522,0.0481 0.0501,0.0509 0.0483,0.0538 0.0466,0.0569 0.045,0.0599 0.0435,0.063 0.042,0.0662 0.0216,0.0347 0.0223,0.034 0.023,0.0333 0.0238,0.0324 0.0247,0.0315 0.0256,0.0305 0.0267,0.0293 0.0277,0.028 0.0289,0.0267 0.0301,0.0253 0.0315,0.0237 0.0329,0.022 0.0343,0.0203 0.0359,0.0184 0.0375,0.0165 0.0392,0.0144 0.0275,0.0022 0.0133,7e-4 0.013,2e-4 0.0127,-2e-4 0.0125,-6e-4 0.0123,-0.0012 0.0121,-0.0017 0.012,-0.0023 0.0119,-0.003 0.0119,-0.0037 0.0118,-0.0044 0.0118,-0.0051 0.0118,-0.006 0.0119,-0.0068 0.012,-0.0078 0.008,-0.0075 0.007,-0.0077 0.007,-0.0077 0.007,-0.0078 0.006,-0.0079 0.006,-0.0081 0.005,-0.0081 0.005,-0.0082 0.005,-0.0083 0.004,-0.0083 0.007,-0.0171 0.006,-0.0175 0.005,-0.0178 0.004,-0.0183 0.003,-0.0186 0.003,-0.0191 0.002,-0.0195 0.003,-0.0402 0.002,-0.0419 0.002,-0.054 0.002,-0.0541 0.004,-0.0833 0.003,-0.0418 0.004,-0.0417 0.005,-0.0415 0.003,-0.0206 0.004,-0.0205 0.004,-0.0204 0.005,-0.0202 0.005,-0.02 0.006,-0.0199 -0.0388,0.0014 -0.0573,3e-4 -0.0276,-8e-4 -0.0268,-0.0015 -0.0262,-0.0024 -0.0255,-0.0033 -0.0251,-0.0044 -0.0245,-0.0057 -0.0241,-0.007 -0.0237,-0.0084 -0.0234,-0.01 -0.0231,-0.0116 -0.0228,-0.0135 -0.0227,-0.0153 -0.0225,-0.0174 -0.0225,-0.0194 -0.0218,-0.0221 -0.009,-0.0092 -0.008,-0.0081 -0.006,-0.0072 -0.005,-0.0066 -0.004,-0.006 -0.002,-0.0029 -0.002,-0.0028 -0.001,-0.0028 -0.001,-0.0027 -0.001,-0.0028 -9e-4,-0.0028 -8e-4,-0.0028 -7e-4,-0.0029 -0.001,-0.006 -6e-4,-0.0067 -3e-4,-0.0073 -1e-4,-0.0174 0.0455,0.0065 0.0223,0.0025 0.0223,0.002 0.0223,0.0017 0.0222,0.0012 0.0223,9e-4 0.0223,5e-4 0.0448,4e-4 h 0.0316 l 0.0268,-6e-4 0.0263,-0.0013 0.0259,-0.0021 0.0257,-0.0029 0.0255,-0.0039 0.0255,-0.005 0.0257,-0.006 0.026,-0.0071 V 82.142 l -0.032,-0.0035 -0.0368,-0.0053 -0.0243,-0.0044 v 0 h 0.6355 l 0.004,0.0112 0.004,0.0107 0.004,0.0103 0.005,0.0098 0.005,0.0094 0.005,0.009 0.006,0.0086 0.006,0.0082 0.006,0.0079 0.007,0.0076 0.007,0.0072 0.008,0.007 0.008,0.0067 0.009,0.0065 0.01,0.0062 0.0103,0.006 0.011,9e-4 0.0104,4e-4 h 0.0101 l 0.01,-5e-4 0.009,-9e-4 0.009,-0.0014 0.009,-0.0018 0.009,-0.0024 0.009,-0.0028 0.008,-0.0033 0.008,-0.0037 0.008,-0.0042 0.009,-0.0047 0.009,-0.0052 0.009,-0.0056 0.009,-0.0062 0.01,-0.0122 0.004,-0.0051 0.003,-0.0046 0.003,-0.0043 0.001,-0.002 0.001,-0.002 10e-4,-0.0019 9e-4,-0.0019 8e-4,-0.002 7e-4,-0.0019 6e-4,-0.002 5e-4,-0.002 4e-4,-0.0021 3e-4,-0.0022 3e-4,-0.0022 2e-4,-0.0023 2e-4,-0.0051 v -0.0057 l -1e-4,-0.0065 -7e-4,-0.0155 -0.004,-0.0104 -0.003,-0.0098 -0.004,-0.0091 -0.004,-0.0087 -0.004,-0.0082 -0.004,-0.0078 -0.004,-0.0075 -0.005,-0.0072 -0.005,-0.0071 -0.005,-0.007 -0.006,-0.0069 -0.006,-0.007 -0.006,-0.0071 -0.007,-0.0073 -0.0148,-0.0154 -0.006,-0.0031 -0.006,-0.0027 -0.006,-0.0025 -0.006,-0.0021 -0.006,-0.0018 -0.006,-0.0015 -0.006,-0.0012 -0.006,-9e-4 -0.006,-7e-4 -0.006,-3e-4 -0.006,-1e-4 -0.005,2e-4 -0.006,5e-4 -0.005,8e-4 -0.005,0.001 -0.005,0.0013 -0.005,0.0016 -0.005,0.0018 -0.005,0.002 -0.005,0.0023 -0.01,0.0053 -0.01,0.0063 -0.01,0.0071 -0.01,0.008 -0.01,0.0088 -0.01,0.0096 -0.007,0.0124 -0.003,0.0051 -0.002,0.0047 -0.002,0.0042 -0.002,0.0039 -0.002,0.0038 -0.001,0.0037 -0.001,0.0038 -9e-4,0.0039 -9e-4,0.0042 -8e-4,0.0047 -7e-4,0.0052 -7e-4,0.0058 -0.001,0.014 h -0.6355 l -0.012,-0.0022 -0.0357,-0.0079 -0.0352,-0.0093 -0.0345,-0.0106 -0.0338,-0.012 -0.0331,-0.0135 -0.0324,-0.015 -0.0315,-0.0165 -0.0307,-0.0181 -0.0298,-0.0197 -0.0289,-0.0213 -0.0279,-0.0231 -0.0269,-0.0248 -0.0259,-0.0265 -0.0247,-0.0284 -0.008,-0.0113 -0.007,-0.0116 -0.007,-0.0117 -0.007,-0.0119 -0.006,-0.012 -0.006,-0.0122 -0.006,-0.0124 -0.005,-0.0125 -0.005,-0.0127 -0.004,-0.0128 -0.004,-0.0129 -0.003,-0.0132 -0.002,-0.0132 -0.002,-0.0134 -0.001,-0.0135 -3e-4,-0.0136 0.0173,0.0066 0.017,0.0071 0.0167,0.0075 0.0165,0.0078 0.0163,0.0082 0.0162,0.0085 0.0162,0.0089 0.0162,0.0091 0.0258,0.0142 0.0259,0.0134 0.026,0.0127 0.0262,0.0118 0.0263,0.0111 0.0265,0.0103 0.0267,0.0095 0.0269,0.0087 0.0272,0.008 0.0275,0.0073 0.0277,0.0064 0.0281,0.0058 0.0283,0.005 0.0287,0.0042 0.0291,0.0035 0.0295,0.0028 V 81.851 l -0.0287,-0.0104 -0.0274,-0.0126 -0.0269,-0.014 -0.0264,-0.0153 -0.0257,-0.0166 -0.025,-0.0179 -0.0243,-0.0189 -0.0235,-0.0201 -0.0226,-0.0211 -0.0216,-0.022 -0.0206,-0.0229 -0.0195,-0.0238 -0.0184,-0.0245 -0.0172,-0.0253 -0.0158,-0.0259 -0.0145,-0.0265 -0.0131,-0.027 -0.005,-0.0129 -0.004,-0.0125 -0.004,-0.0123 -0.003,-0.0121 -0.003,-0.012 -0.002,-0.0118 -0.002,-0.0118 -0.002,-0.0118 -0.001,-0.0119 -0.001,-0.012 -5e-4,-0.0121 -2e-4,-0.0123 1e-4,-0.0125 5e-4,-0.0129 9e-4,-0.0131 0.001,-0.0136 0.0133,-0.0265 0.011,0.0037 0.0104,0.0039 0.01,0.0042 0.009,0.0045 0.009,0.0048 0.008,0.0052 0.008,0.0054 0.008,0.0057 0.008,0.006 0.008,0.0064 0.007,0.0067 0.007,0.007 0.015,0.0151 0.0156,0.0165 0.0451,0.0439 0.0465,0.0402 0.0481,0.0367 0.0494,0.0335 0.0507,0.0304 0.052,0.0275 0.0532,0.0247 0.0543,0.0222 0.0554,0.0199 0.0563,0.0178 0.0573,0.0157 0.0581,0.014 0.0589,0.0124 0.0596,0.011 0.0603,0.0098 0.0608,0.0087 0.0572,0.0089 0.0579,0.011 0.0289,0.0065 0.0288,0.0073 0.0285,0.0081 0.0281,0.0092 0.0277,0.0103 0.027,0.0114 0.0264,0.0127 0.0255,0.0141 0.0247,0.0156 0.0236,0.0171 0.0225,0.0188 0.0212,0.0205 0.0107,0.0171 0.0106,0.0171 0.0105,0.0172 0.0104,0.0172 0.01,0.0149 0.005,0.0067 0.005,0.0062 0.004,0.0057 0.005,0.0054 0.005,0.005 0.005,0.0046 0.005,0.0044 0.005,0.0041 0.006,0.0039 0.006,0.0037 0.007,0.0035 0.007,0.0035 0.008,0.0033 0.009,0.0033 0.0223,0.0043 0.0223,0.0041 0.0224,0.0039 0.0224,0.0038 0.0163,0.0039 0.0157,0.0046 0.0151,0.0052 0.0147,0.006 0.0141,0.0066 0.0136,0.0073 0.0131,0.008 0.0127,0.0086 0.0122,0.0093 0.0117,0.0099 0.0114,0.0106 0.0109,0.0112 0.0105,0.0118 0.0102,0.0125 0.01,0.013 0.009,0.0137 0.0105,0.0207 0.009,0.0208 0.007,0.0209 0.006,0.0211 0.004,0.0213 0.003,0.0213 0.002,0.0214 6e-4,0.0215 -6e-4,0.0216 -0.001,0.0217 -0.002,0.0217 -0.003,0.0218 -0.004,0.0218 -0.005,0.0218 -0.006,0.0219 -0.006,0.0218 h -0.0529 l -0.0266,-0.033 -0.0264,-0.0331 -0.0186,-0.0126 -0.0187,-0.011 -0.0188,-0.0097 -0.0187,-0.0084 -0.0189,-0.0071 -0.0191,-0.006 -0.0191,-0.0048 -0.0194,-0.0039 -0.0197,-0.0029 -0.0198,-0.002 -0.0202,-0.0012 -0.0205,-5e-4 -0.0209,2e-4 -0.0212,8e-4 -0.0217,0.0013 -0.0222,0.0017 -0.008,0.0023 -0.008,0.0024 -0.008,0.0026 -0.008,0.0028 -0.0151,0.0058 -0.0147,0.0064 -0.0145,0.0069 -0.0144,0.0074 -0.0143,0.0079 -0.0145,0.0084 -0.0256,0.0136 -0.008,0.0047 -0.007,0.005 -0.007,0.0051 -0.007,0.0054 -0.006,0.0054 -0.006,0.0057 -0.006,0.0058 -0.006,0.006 -0.0111,0.0124 -0.0102,0.013 -0.01,0.0136 -0.009,0.0141 -0.008,0.0145 -0.007,0.015 -0.007,0.0154 -0.006,0.0157 -0.006,0.0161 -0.006,0.0164 -0.005,0.0167 -0.005,0.0168 -0.002,0.0354 -4e-4,0.0347 7e-4,0.0342 0.002,0.0337 0.003,0.0333 0.004,0.033 0.005,0.0327 0.005,0.0325 0.006,0.0323 0.007,0.0323 0.0165,0.0647 0.019,0.0653 0.0213,0.0665 0.0102,0.0352 0.01,0.0365 0.009,0.0376 0.008,0.0385 0.007,0.0392 0.005,0.0397 0.004,0.04 0.002,0.0402 9e-4,0.0402 -7e-4,0.04 -0.002,0.0396 -0.004,0.0389 -0.006,0.0383 -0.008,0.0373 -0.0106,0.0361 -0.0129,0.0348 -0.0261,0.0453 -0.0279,0.0442 -0.0297,0.0432 -0.0314,0.0421 -0.033,0.0408 -0.0346,0.0396 -0.0361,0.0382 -0.0376,0.0368 -0.039,0.0353 -0.0403,0.0337 -0.0416,0.0322 -0.0428,0.0305 -0.0439,0.0287 -0.045,0.0269 -0.0461,0.025 -0.047,0.0231 -0.007,-0.0358 -0.01,-0.0469 -0.009,-0.0465 -0.003,-0.0084 -0.003,-0.0078 -0.003,-0.0072 -0.003,-0.0068 -0.003,-0.0064 -0.003,-0.006 -0.004,-0.0057 -0.004,-0.0055 -0.004,-0.0053 -0.004,-0.0052 -0.005,-0.0051 -0.005,-0.0051 -0.005,-0.0051 -0.006,-0.0052 -0.006,-0.0054 -0.007,-0.0055 -0.0265,-0.0133 -10e-4,0.0263 -0.003,0.0379 -0.005,0.0366 -0.006,0.0356 -0.008,0.0344 -0.01,0.0336 -0.0111,0.0327 -0.0125,0.0319 -0.0139,0.0313 -0.0152,0.0307 -0.0165,0.0302 -0.0178,0.0298 -0.019,0.0296 -0.0201,0.0293 -0.0212,0.0293 -0.0223,0.0292 -0.0234,0.0293 -0.0141,0.018 -0.0131,0.0178 -0.0123,0.0177 -0.0113,0.0177 -0.0103,0.0177 -0.009,0.0178 -0.009,0.018 -0.008,0.0184 -0.007,0.0186 -0.006,0.0191 -0.005,0.0196 -0.004,0.0202 -0.003,0.0209 -0.003,0.0217 -0.002,0.0224 -9e-4,0.0234 0.004,0.0139 0.002,0.0065 0.002,0.006 0.002,0.0058 0.002,0.0055 0.002,0.0053 0.003,0.005 0.003,0.0049 0.003,0.0047 0.004,0.0046 0.004,0.0045 0.004,0.0045 0.005,0.0044 0.005,0.0045 0.006,0.0044 0.0318,0.0144 0.0361,0.0165 0.0386,0.0169 0.0386,0.0176 0.031,0.0138 0.031,0.0136 0.0623,0.0269 0.0452,0.0194 0.0396,0.0161 0.0395,0.0153 0.0398,0.0145 0.0399,0.0137 0.0402,0.0129 0.0405,0.0119 0.041,0.0112 0.0414,0.0102 0.0223,0.006 0.0218,0.0069 0.0213,0.0077 0.0208,0.0086 0.0203,0.0095 0.0197,0.0103 0.0192,0.0112 0.0186,0.0121 0.0181,0.0129 0.0174,0.0138 0.0168,0.0146 0.0161,0.0155 0.0155,0.0164 0.0148,0.0172 0.0141,0.0181 0.0134,0.019 0.005,0.0112 0.005,0.011 0.004,0.0107 0.003,0.0105 0.003,0.0103 0.002,0.0102 10e-4,0.0102 0.001,0.0102 4e-4,0.0102 -1e-4,0.0104 -6e-4,0.0104 -0.001,0.0108 -0.002,0.0109 -0.002,0.0113 -0.003,0.0116 -0.003,0.012 -0.008,0.0066 -0.003,0.0027 -0.003,0.0023 -0.003,0.002 -0.002,0.0018 -0.002,0.0015 -0.001,7e-4 -0.001,6e-4 -0.001,6e-4 -10e-4,6e-4 -0.003,0.0011 -0.003,9e-4 -0.003,10e-4 -0.004,9e-4 -0.004,0.001 -0.0102,0.0022 -0.012,-0.0012 -0.0115,-0.0017 -0.0111,-0.0019 -0.0106,-0.0024 -0.0103,-0.0026 -0.01,-0.0031 -0.01,-0.0034 -0.01,-0.0037 -0.01,-0.0041 -0.009,-0.0044 -0.009,-0.0047 -0.009,-0.0051 -0.0193,-0.0112 -0.0201,-0.0125 -0.015,-0.0089 -0.0149,-0.0084 -0.015,-0.008 -0.015,-0.0077 -0.0301,-0.0143 -0.0305,-0.0132 -0.0308,-0.0122 -0.0315,-0.0114 -0.0321,-0.0107 -0.0328,-0.0104 -0.0284,-0.0093 -0.0278,-0.01 -0.0274,-0.0106 -0.0271,-0.0112 -0.0269,-0.0116 -0.0268,-0.0123 -0.0267,-0.0126 -0.0267,-0.0132 -0.0539,-0.0252 -0.0542,-0.0231 -0.0547,-0.0213 -0.0552,-0.0196 -0.0557,-0.0182 -0.0562,-0.0173 -0.0567,-0.0164 -0.0572,-0.0159 -0.0325,-0.0089 -0.0304,-0.0082 -0.0304,-0.008 -0.0431,-0.0115 -0.0329,-0.0091 -0.0132,-0.004 -0.0114,-0.0037 -0.01,-0.0036 -0.009,-0.0035 -0.008,-0.0036 -0.007,-0.0038 -0.006,-0.0041 -0.006,-0.0045 -0.006,-0.0051 -0.006,-0.0056 -0.0139,-0.0137 -0.004,-0.0714 -0.002,-0.0717 -3e-4,-0.0718 0.002,-0.0718 0.002,-0.0358 0.003,-0.0357 0.004,-0.0356 0.005,-0.0354 0.006,-0.0353 0.007,-0.035 0.008,-0.0348 0.009,-0.0346 0.0115,-0.0412 0.007,-0.0229 0.007,-0.0227 0.007,-0.0228 0.007,-0.0227 -0.0152,0.0085 -0.0147,0.0087 -0.014,0.0089 -0.0136,0.0091 -0.0131,0.0094 -0.0127,0.0096 -0.0124,0.01 -0.012,0.0102 -0.0117,0.0106 -0.0115,0.011 -0.0112,0.0113 -0.0111,0.0117 -0.011,0.0122 -0.0109,0.0126 -0.0109,0.013 -0.0108,0.0135 -0.0242,0.0302 -0.0453,0.0592 -0.0427,0.0596 -0.0402,0.0602 -0.0381,0.0611 -0.0362,0.0622 -0.0346,0.0637 -0.0333,0.0653 -0.0322,0.0673 -0.0315,0.0648 -0.0329,0.0622 -0.0172,0.0303 -0.0176,0.0298 -0.0181,0.0293 -0.0187,0.0288 -0.0193,0.0285 -0.0199,0.0281 -0.0205,0.0278 -0.0213,0.0275 -0.022,0.0273 -0.0228,0.027 -0.0236,0.0269 -0.0245,0.0268 -0.026,0.0288 -0.0332,0.0332 -0.0347,0.0307 -0.0359,0.0283 -0.0372,0.0262 -0.0383,0.0241 -0.0394,0.0223 -0.0403,0.0204 -0.0411,0.0189 -0.0419,0.0175 -0.0426,0.0161 -0.0432,0.0149 -0.0436,0.014 -0.0882,0.0254 -0.0891,0.0231 -0.0258,0.0072 -0.03,0.006 -0.0304,0.0046 -0.0309,0.0033 -0.0311,0.002 -0.0315,8e-4 -0.0315,-4e-4 -0.0317,-0.0015 -0.0316,-0.0028 -0.0314,-0.0038 -0.0313,-0.0049 -0.031,-0.0059 -0.0307,-0.007 -0.0301,-0.0079 -0.0297,-0.0089 -0.0289,-0.0098 -0.0283,-0.0106 -0.0405,-0.0161 -0.043,-0.0205 -0.0228,-0.0117 -0.0233,-0.0128 -0.0235,-0.0137 -0.0236,-0.0146 -0.0233,-0.0155 -0.0229,-0.0163 -0.022,-0.0171 -0.0211,-0.018 -0.0198,-0.0186 -0.0183,-0.0193 -0.0166,-0.02 -0.0145,-0.0207 -0.006,-0.0105 -0.006,-0.0107 -0.005,-0.0108 -0.005,-0.011 0.0877,0.0124 0.0493,0.007 0.0215,0.0032 0.0214,0.0034 0.0215,0.0036 0.0214,0.0038 0.0361,0.005 0.0368,0.0043 0.0373,0.0034 0.0377,0.0025 0.038,0.0017 0.0383,7e-4 0.0384,-2e-4 0.0384,-0.0012 0.0384,-0.0023 0.0382,-0.0033 0.0379,-0.0044 0.0375,-0.0055 0.0371,-0.0067 0.0365,-0.0079 0.0358,-0.0091 0.035,-0.0104 0.031,-0.0092 0.0681,-0.0215 0.0663,-0.023 0.0644,-0.0248 0.0625,-0.0266 0.0607,-0.0286 0.0589,-0.0309 0.057,-0.033 0.0552,-0.0356 0.0533,-0.0381 0.0516,-0.0408 0.0496,-0.0437 0.0479,-0.0466 0.046,-0.0498 0.0442,-0.053 0.0424,-0.0565 0.0405,-0.06 0.0222,-0.0346 0.006,-0.0111 0.005,-0.0108 0.002,-0.0053 0.002,-0.0053 0.002,-0.0053 0.002,-0.0053 0.002,-0.0053 0.002,-0.0055 0.003,-0.011 0.003,-0.0116 0.003,-0.0121 0.0108,-0.0488 -0.0166,0.0052 -0.0157,0.0055 -0.0148,0.0058 -0.0141,0.0062 -0.0134,0.0066 -0.0128,0.007 -0.0123,0.0074 -0.0119,0.0079 -0.0116,0.0083 -0.0114,0.0089 -0.0112,0.0095 -0.0111,0.01 -0.0112,0.0107 -0.0113,0.0112 -0.0232,0.0246 -0.0289,0.0295 -0.0289,0.0285 -0.0294,0.0276 -0.0299,0.0267 -0.0152,0.013 -0.0155,0.0127 -0.0158,0.0125 -0.016,0.0122 -0.0164,0.012 -0.0167,0.0117 -0.017,0.0115 -0.0175,0.0113 -0.0226,0.0143 -0.0385,0.0234 -0.0389,0.0222 -0.0394,0.021 -0.0398,0.0198 -0.0402,0.0186 -0.0406,0.0175 -0.041,0.0164 -0.0415,0.0152 -0.0418,0.0141 -0.0422,0.013 -0.0427,0.012 -0.043,0.0108 -0.0434,0.0098 -0.0437,0.0088 -0.0442,0.0077 -0.0445,0.0067 -0.0361,0.0052 -0.0549,0.0058 -0.0556,0.0043 -0.056,0.0029 -0.0563,0.0012 -0.0565,-7e-4 -0.0564,-0.0026 -0.0561,-0.0049 -0.0558,-0.0073 -0.0551,-0.0098 -0.0544,-0.0125 -0.0535,-0.0153 -0.0524,-0.0184 -0.0512,-0.0217 -0.0496,-0.025 -0.0481,-0.0286 -0.0463,-0.0323 -0.0317,-0.0255 -0.0334,-0.0259 -0.0175,-0.0149 -0.0181,-0.016 -0.0184,-0.0172 -0.0185,-0.0182 -0.0185,-0.0191 -0.0181,-0.02 -0.0177,-0.0207 -0.0171,-0.0213 -0.0161,-0.022 -0.015,-0.0224 -0.0138,-0.0228 -0.0123,-0.0231 -0.0106,-0.0233 -0.004,-0.0117 -0.004,-0.0117 -0.004,-0.0117 -0.003,-0.0118 -0.002,-0.0117 -0.002,-0.0117 -5e-4,-0.0207 -3e-4,-0.0206 -1e-4,-0.0207 1e-4,-0.0207 4e-4,-0.0432 4e-4,-0.0328 0.006,-0.0024 0.006,-0.0021 0.006,-0.0018 0.005,-0.0015 0.005,-0.0011 0.005,-9e-4 0.005,-6e-4 0.005,-3e-4 0.005,1e-4 0.005,3e-4 0.005,7e-4 0.005,0.0011 0.005,0.0013 0.006,0.0018 0.006,0.0021 0.006,0.0024 0.0344,0.0199 0.0391,0.0224 0.0307,0.0187 0.0305,0.0189 0.0609,0.0384 0.0697,0.0408 0.0707,0.037 0.0715,0.0331 0.0724,0.0293 0.0731,0.0254 0.0739,0.0216 0.0746,0.0177 0.0753,0.0139 0.076,0.0101 0.0765,0.0063 0.077,0.0026 0.0776,-0.0013 0.0781,-0.005 0.0785,-0.0088 0.0789,-0.0126 0.0792,-0.0163 0.0395,-0.0104 0.0392,-0.0115 0.039,-0.0126 0.0386,-0.0135 0.0383,-0.0146 0.038,-0.0155 0.0376,-0.0164 0.0372,-0.0173 0.0368,-0.0182 0.0364,-0.0189 0.0359,-0.0198 0.0355,-0.0205 0.035,-0.0213 0.0345,-0.0219 0.0675,-0.0458 0.0111,-0.0076 0.0112,-0.0073 0.0225,-0.0137 0.0228,-0.0128 0.0231,-0.012 0.0234,-0.0113 0.0239,-0.0106 0.0244,-0.0101 0.025,-0.0096 0.0273,-0.0103 0.0209,-0.0073 0.009,-0.0029 0.008,-0.0024 0.007,-0.0019 0.006,-0.0015 0.006,-0.001 0.005,-5e-4 0.005,-1e-4 0.005,3e-4 0.005,7e-4 0.005,0.0011 0.006,0.0016 0.006,0.0019 0.015,0.0049 v -0.1059 l -0.0172,-0.0035 -0.0171,-0.0027 -0.0171,-0.0019 -0.0171,-0.0011 -0.0339,-1e-4 -0.0337,0.0028 -0.0334,0.0052 -0.0332,0.0074 -0.0329,0.0093 -0.0327,0.0111 -0.0324,0.0124 -0.0321,0.0137 -0.0632,0.0297 -0.1225,0.0619 -0.0463,0.0216 -0.0465,0.0199 -0.0469,0.0184 -0.0473,0.017 -0.0477,0.0158 -0.0482,0.0146 -0.0488,0.0136 -0.0494,0.0128 -0.029,0.0076 -0.0602,0.0129 -0.0611,0.0093 -0.0619,0.0058 -0.0625,0.0024 -0.0628,-8e-4 -0.0629,-0.0041 -0.0628,-0.0071 -0.0626,-0.0101 -0.0621,-0.0129 -0.0615,-0.0157 -0.0605,-0.0184 -0.0595,-0.0208 -0.0581,-0.0234 -0.0567,-0.0256 -0.0549,-0.0279 -0.0531,-0.03 -0.0178,-0.012 -0.0173,-0.0124 -0.0169,-0.0126 -0.0165,-0.0129 -0.0162,-0.0134 -0.016,-0.0137 -0.0158,-0.0142 -0.0158,-0.0146 -0.0326,-0.0291 -0.0259,-0.0249 -0.025,-0.0256 -0.024,-0.0262 -0.023,-0.0269 -0.0221,-0.0274 -0.0212,-0.0281 -0.0201,-0.0287 -0.0192,-0.0293 -0.0182,-0.0299 -0.0172,-0.0305 -0.0162,-0.0312 -0.0152,-0.0318 -0.0142,-0.0323 -0.0132,-0.033 -0.0122,-0.0336 -0.0112,-0.0342 -0.0102,-0.0302 -0.006,-0.0229 -0.005,-0.0234 -0.004,-0.024 -0.003,-0.0243 -0.002,-0.0246 -6e-4,-0.0248 4e-4,-0.0249 0.001,-0.0249 0.003,-0.0248 0.004,-0.0246 0.005,-0.0242 0.006,-0.0239 0.007,-0.0234 0.008,-0.0227 0.009,-0.0221 0.0104,-0.0213 0.0232,-0.0363 0.01,-0.0147 0.009,-0.0128 0.008,-0.0109 0.007,-0.0094 0.007,-0.0079 0.006,-0.0067 0.006,-0.0056 0.006,-0.0048 0.007,-0.0041 0.007,-0.0037 0.008,-0.0033 0.009,-0.0033 0.0212,-0.0071 0.0281,-8e-4 0.006,0.0096 0.005,0.0098 0.005,0.0098 0.004,0.01 0.004,0.01 0.003,0.0102 0.003,0.0102 0.002,0.0103 0.002,0.0104 0.002,0.0105 0.003,0.0213 0.006,0.0432 0.009,0.0498 0.0117,0.0482 0.0141,0.0469 0.0166,0.0455 0.0188,0.0441 0.0211,0.0428 0.0233,0.0416 0.0253,0.0403 0.0273,0.0391 0.0293,0.0379 0.0311,0.0368 0.0328,0.0358 0.0346,0.0346 0.0361,0.0336 0.0377,0.0326 0.0391,0.0317 0.0525,0.0348 0.0542,0.0312 0.0559,0.0277 0.0574,0.0243 0.0586,0.021 0.0597,0.0178 0.0607,0.0147 0.0614,0.0117 0.062,0.0088 0.0624,0.0061 0.0627,0.0033 0.0627,8e-4 0.0627,-0.0018 0.0624,-0.0041 0.0619,-0.0064 0.0614,-0.0086 0.0625,-0.0139 0.0613,-0.0164 0.06,-0.0187 0.0588,-0.0209 0.0578,-0.0231 0.0566,-0.0251 0.0557,-0.0271 0.0547,-0.0289 0.0539,-0.0306 0.053,-0.0322 0.0523,-0.0338 0.0515,-0.0352 0.0509,-0.0365 0.0503,-0.0377 0.099,-0.0787 0.0298,-0.0232 0.0122,-0.0101 0.0117,-0.0103 0.0114,-0.0105 0.0111,-0.0108 0.0108,-0.011 0.0105,-0.0111 0.0103,-0.0114 0.01,-0.0115 0.0196,-0.0235 0.0192,-0.0241 0.0189,-0.0245 0.019,-0.025 0.01,-0.0124 0.01,-0.0122 0.01,-0.0119 0.0102,-0.0117 0.0207,-0.0227 0.0213,-0.0221 0.0219,-0.0214 0.0225,-0.021 0.0231,-0.0208 0.0237,-0.0206 0.0105,-0.0087 0.004,-0.0036 0.004,-0.0034 0.003,-0.0031 0.003,-0.003 0.003,-0.003 0.003,-0.003 0.003,-0.0032 0.003,-0.0035 0.003,-0.0038 0.003,-0.0042 0.003,-0.0048 0.003,-0.0054 0.008,-0.0132 0.001,-0.0206 4e-4,-0.0074 1e-4,-0.0064 -1e-4,-0.0062 -4e-4,-0.0069 -0.001,-0.0187 -0.0104,-0.0063 -0.005,-0.0028 -0.005,-0.0026 -0.005,-0.0024 -0.005,-0.0021 -0.005,-0.0019 -0.005,-0.0017 -0.005,-0.0014 -0.005,-0.0011 -0.005,-9e-4 -0.005,-6e-4 -0.005,-3e-4 h -0.006 l -0.006,3e-4 -0.006,7e-4 -0.0194,0.0071 -0.0189,0.0076 -0.0184,0.0081 -0.0179,0.0086 -0.0176,0.009 -0.0172,0.0094 -0.0169,0.0099 -0.0166,0.0102 -0.0164,0.0106 -0.0163,0.011 -0.0321,0.0229 -0.0321,0.0242 -0.0322,0.0252 -0.0348,0.0268 -0.0346,0.0251 -0.0346,0.0235 -0.0346,0.0218 -0.0347,0.02 -0.0351,0.0182 -0.0355,0.0163 -0.036,0.0143 -0.0367,0.0123 -0.0374,0.0103 -0.0382,0.0081 -0.0393,0.0059 -0.0403,0.0037 -0.0416,0.0014 -0.0429,-10e-4 -0.0443,-0.0034 -0.0323,-0.0076 -0.0319,-0.0087 -0.0158,-0.0048 -0.0156,-0.0052 -0.0154,-0.0057 -0.0152,-0.006 -0.015,-0.0066 -0.0147,-0.007 -0.0145,-0.0075 -0.0142,-0.0082 -0.0139,-0.0087 -0.0136,-0.0093 -0.0132,-0.0099 -0.0128,-0.0107 -0.006,-0.012 -0.005,-0.0095 -0.004,-0.0075 -0.001,-0.0034 -0.001,-0.0031 -10e-4,-0.0031 -0.001,-0.0031 -0.002,-0.0066 -0.002,-0.0079 -0.003,-0.0099 0.0873,-0.0291 0.0437,-0.0142 0.0439,-0.0139 0.0955,-0.0311 0.1,-0.0351 0.102,-0.0394 0.0509,-0.0215 0.0505,-0.0226 0.0499,-0.024 0.0487,-0.0252 0.0474,-0.0265 0.0458,-0.0279 0.0438,-0.0293 0.0416,-0.0307 0.039,-0.0323 0.0361,-0.0338 0.001,-0.0202 3e-4,-0.0073 1e-4,-0.0064 -1e-4,-0.0063 -3e-4,-0.0069 -0.001,-0.019 -0.0112,-0.0036 -0.0114,-0.0028 -0.0117,-0.0019 -0.012,-0.0012 -0.0122,-5e-4 -0.0124,2e-4 -0.0126,9e-4 -0.0128,0.0014 -0.026,0.0045 -0.0264,0.0065 -0.0267,0.0081 -0.0268,0.0095 -0.0268,0.0105 -0.0265,0.0112 -0.0516,0.0233 -0.0488,0.0225 -0.0445,0.0191 -0.1225,0.0482 -0.1257,0.046 -0.0638,0.0212 -0.0643,0.0194 -0.0648,0.0171 -0.0651,0.0144 -0.0654,0.0113 -0.0655,0.0078 -0.0656,0.0037 -0.0656,-6e-4 -0.0655,-0.0056 -0.0653,-0.0108 -0.0325,-0.0075 -0.0325,-0.009 -0.0323,-0.0106 -0.0323,-0.0121 -0.0849,-0.0375 -0.0647,-0.0294 -0.0258,-0.0124 -0.0222,-0.0114 -0.0189,-0.0105 -0.0163,-0.0102 -0.0139,-0.01 -0.0122,-0.0101 -0.0108,-0.0107 -0.01,-0.0114 -0.01,-0.0125 -0.01,-0.014 -0.0214,-0.0334 -0.003,-0.0091 -0.001,-0.0038 -0.001,-0.0036 -0.001,-0.0034 -8e-4,-0.0034 -7e-4,-0.0034 -5e-4,-0.0037 -5e-4,-0.0039 -3e-4,-0.0043 -2e-4,-0.0049 -2e-4,-0.0055 -1e-4,-0.0063 v -0.0072 -0.0175 l 0.0431,-8e-4 0.1804,-0.0052 0.1774,-0.009 0.1752,-0.0137 0.1735,-0.0194 0.1727,-0.0258 0.0862,-0.0155 0.0863,-0.0176 0.0864,-0.0195 0.0866,-0.0217 0.0869,-0.024 0.0873,-0.0263 0.0132,-0.0661 -0.0231,-0.0068 -0.0236,-0.0051 -0.024,-0.0037 -0.0243,-0.0023 -0.0246,-10e-4 h -0.0248 l -0.025,10e-4 -0.0251,0.0018 -0.025,0.0025 -0.0251,0.0031 -0.0497,0.0073 -0.096,0.0156 -0.1683,0.0223 -0.085,0.0089 -0.0853,0.0067 -0.0854,0.0044 -0.0853,0.0016 -0.0851,-0.0015 -0.0846,-0.0051 -0.0839,-0.0088 -0.0831,-0.0131 -0.0821,-0.0176 -0.0808,-0.0225 -0.0794,-0.0278 -0.0779,-0.0334 -0.076,-0.0395 -0.0741,-0.0458 -0.0175,-0.0139 -0.0172,-0.0142 -0.0169,-0.0145 -0.0165,-0.0147 -0.0163,-0.015 -0.0161,-0.0153 -0.016,-0.0156 -0.0158,-0.0158 -0.0313,-0.0319 -0.0359,-0.0387 -0.0178,-0.0201 -0.0177,-0.0204 -0.0172,-0.021 -0.0167,-0.0214 -0.0159,-0.0219 -0.0151,-0.0224 -0.0141,-0.023 -0.0128,-0.0234 -0.0116,-0.024 -0.01,-0.0246 -0.004,-0.0125 -0.004,-0.0126 -0.004,-0.0128 -0.003,-0.0129 -0.003,-0.0131 -0.002,-0.0133 -0.001,-0.0134 -10e-4,-0.0135 0.0132,-0.0397 0.0136,0.0016 0.0133,0.0021 0.0128,0.0025 0.0126,0.0029 0.0123,0.0033 0.0121,0.0036 0.0119,0.004 0.0118,0.0044 0.0117,0.0046 0.0116,0.0049 0.0232,0.0105 0.0234,0.0114 0.024,0.012 0.1003,0.046 0.1008,0.0412 0.1013,0.0365 0.1018,0.0322 0.1023,0.0281 0.1029,0.0243 0.1034,0.0207 0.104,0.0176 0.1046,0.0145 0.1052,0.0118 0.1058,0.0095 0.1064,0.0072 0.2148,0.0092 0.2174,0.0038 -0.007,-0.0183 -0.004,-0.0083 -0.003,-0.0077 -0.004,-0.0072 -0.004,-0.0068 -0.004,-0.0064 -0.004,-0.006 -0.005,-0.0058 -0.005,-0.0055 -0.006,-0.0053 -0.006,-0.0052 -0.007,-0.0051 -0.007,-0.0051 -0.008,-0.0051 -0.009,-0.0052 -0.01,-0.0033 -0.01,-0.0032 -0.0194,-0.0056 -0.0195,-0.005 -0.0196,-0.0043 -0.0197,-0.0038 -0.0199,-0.0034 -0.02,-0.0031 -0.0201,-0.0028 -0.0625,-0.0092 -0.0327,-0.0047 -0.1546,-0.0228 -0.1559,-0.0258 -0.0779,-0.0148 -0.0775,-0.0165 -0.077,-0.0184 -0.0762,-0.0207 -0.0752,-0.0233 -0.074,-0.0263 -0.0725,-0.0294 -0.0708,-0.033 -0.069,-0.0368 -0.0668,-0.0409 -0.0644,-0.0454 -0.0619,-0.0501 -0.0314,-0.0262 -0.0407,-0.0362 -0.0392,-0.0375 -0.0375,-0.0388 -0.0358,-0.0401 -0.0339,-0.0414 -0.0321,-0.0426 -0.0299,-0.0439 -0.0278,-0.0451 -0.0256,-0.0464 -0.0232,-0.0476 -0.0207,-0.0489 -0.0181,-0.05 -0.0155,-0.0514 -0.0126,-0.0525 -0.01,-0.0537 -0.007,-0.0549 -3e-4,-0.0218 2e-4,-0.0205 4e-4,-0.0098 7e-4,-0.0097 0.001,-0.0094 0.001,-0.0093 0.002,-0.0093 0.002,-0.0092 0.002,-0.0092 0.003,-0.0092 0.004,-0.0093 0.004,-0.0095 0.005,-0.0096 0.005,-0.0098 0.0114,-0.0019 0.009,-0.0014 0.004,-4e-4 0.004,-4e-4 0.004,-2e-4 0.004,-1e-4 z"
       id="path8" />
    <path
       style="fill:#ffffff;fill-opacity:1;fill-rule:evenodd;stroke:none"
       d="m 139.013,84.2026 -0.004,0.0093 -0.005,0.0087 -0.005,0.008 -0.005,0.0075 -0.006,0.007 -0.006,0.0066 -0.006,0.0061 -0.007,0.0059 -0.007,0.0056 -0.007,0.0054 -0.008,0.0052 -0.008,0.0051 -0.009,0.0051 -0.0182,0.0103 -0.0397,-0.0133 0.0289,-0.0232 0.029,-0.0231 0.0325,-0.026 0.01,-0.0067 0.004,-0.0027 0.004,-0.0023 0.003,-0.002 0.003,-0.0016 0.003,-0.0014 0.003,-0.001 0.003,-9e-4 0.003,-6e-4 0.003,-4e-4 0.003,-4e-4 0.003,-1e-4 0.004,-1e-4 0.009,-1e-4 z"
       id="path9" />
    <path
       style="fill:#ffffff;fill-opacity:1;fill-rule:evenodd;stroke:none"
       d="m 142.9965,84.2693 0.052,0.0018 0.0258,0.0017 0.0255,0.0023 0.0254,0.003 0.0251,0.0038 0.0249,0.0046 0.0247,0.0057 0.0244,0.0067 0.0242,0.0078 0.024,0.0091 0.0237,0.0104 0.0235,0.0118 0.0231,0.0133 0.006,0.009 0.005,0.0085 0.004,0.0081 0.004,0.0077 0.003,0.0075 0.002,0.0073 0.002,0.0073 0.001,0.0072 9e-4,0.0074 5e-4,0.0076 2e-4,0.0078 -1e-4,0.0083 -4e-4,0.0087 -5e-4,0.0093 -10e-4,0.0206 -0.004,0.0127 -0.004,0.0125 -0.004,0.0123 -0.004,0.0122 -0.004,0.0121 -0.004,0.0121 -0.004,0.0122 -0.005,0.0123 -0.0106,0.0275 -0.0144,0.0352 -0.015,0.0348 -0.0156,0.0346 -0.0161,0.0343 -0.0165,0.0341 -0.017,0.0339 -0.0349,0.0674 -0.008,0.0148 -0.007,0.0148 -0.0148,0.0298 -0.0168,0.0319 -0.0177,0.0312 -0.0185,0.0308 -0.019,0.0303 -0.0196,0.03 -0.02,0.0297 -0.0408,0.0593 -0.0232,0.0335 -0.0205,0.0285 -0.0211,0.0279 -0.0214,0.0275 -0.022,0.027 -0.0224,0.0266 -0.0227,0.0264 -0.0232,0.0262 -0.0236,0.0261 -0.0207,0.0239 -0.0207,0.024 -0.021,0.024 -0.0213,0.0237 -0.0432,0.047 -0.0436,0.0466 -0.0439,0.0464 -0.0236,0.0251 -0.0213,0.0225 -0.007,0.0077 -0.006,0.0063 -0.002,0.0028 -0.002,0.0027 -0.002,0.0027 -0.002,0.0027 -0.002,0.003 -0.002,0.0032 -0.002,0.0035 -0.003,0.004 -0.006,0.0097 -0.008,0.0124 h -0.0265 v 0.0265 l -0.005,0.0054 -0.004,0.0043 -0.004,0.0037 -0.004,0.0034 -0.004,0.0036 -0.005,0.0041 -0.0144,0.0119 -0.0172,0.0147 -0.0171,0.0149 -0.0169,0.015 -0.0168,0.0152 -0.0333,0.0306 -0.033,0.0311 -0.0351,0.0328 -0.0354,0.0322 -0.0357,0.0316 -0.0361,0.0311 -0.0366,0.0305 -0.037,0.0301 -0.0375,0.0298 -0.038,0.0293 -0.0237,0.0186 -0.0235,0.0187 -0.0468,0.0379 -0.0798,0.0635 -0.0808,0.0621 -0.0817,0.0607 -0.0824,0.0595 -0.0832,0.0585 -0.0839,0.0577 -0.1696,0.1132 -0.0444,0.0296 -0.0443,0.0299 -0.0506,0.0339 -0.051,0.0333 -0.1028,0.0651 -0.1038,0.0637 -0.1042,0.063 -0.0498,0.0303 -0.0496,0.0305 -0.1044,0.0636 -0.105,0.0622 -0.1057,0.0613 -0.1062,0.0604 -0.0213,0.0122 -0.0213,0.0124 -0.0424,0.025 -0.0611,0.0351 -0.0614,0.0334 -0.0618,0.0318 -0.0621,0.0299 -0.0627,0.0283 -0.063,0.0264 -0.0637,0.0245 -0.0641,0.0227 -0.0648,0.0208 -0.0654,0.0189 -0.0661,0.0168 -0.0668,0.0149 -0.0676,0.0129 -0.0684,0.0107 -0.0692,0.0087 -0.0702,0.0065 -0.0454,0.0042 -0.0507,0.0032 -0.0259,10e-4 -0.026,4e-4 -0.0262,-3e-4 -0.0261,-0.001 -0.0261,-0.0019 -0.0259,-0.003 -0.0257,-0.004 -0.0253,-0.0053 -0.0249,-0.0065 -0.0244,-0.008 -0.0238,-0.0095 -0.023,-0.0111 -0.0223,-0.0129 -0.0215,-0.0147 -0.0407,-0.0379 -0.0165,-0.0158 -0.0142,-0.0139 -0.0121,-0.0125 -0.0102,-0.0114 -0.008,-0.0106 -0.007,-0.0101 -0.003,-0.005 -0.003,-0.0049 -0.002,-0.0049 -0.002,-0.0051 -0.002,-0.0051 -0.002,-0.0053 -0.003,-0.0111 -0.002,-0.0122 -0.002,-0.0135 -0.003,-0.0324 0.0197,-0.01 0.0537,-0.0279 0.0534,-0.0283 0.0529,-0.0288 0.0525,-0.0294 0.0521,-0.0301 0.0518,-0.0307 0.0515,-0.0315 0.0511,-0.0324 0.0378,-0.0238 0.0379,-0.0234 0.0762,-0.0465 0.0844,-0.053 0.0839,-0.0536 0.1671,-0.1087 0.0945,-0.0614 0.0947,-0.0609 0.1903,-0.1206 0.1879,-0.1186 0.0765,-0.0482 0.0767,-0.048 0.0996,-0.0631 0.0989,-0.064 0.0983,-0.0648 0.098,-0.0655 0.0783,-0.0519 0.0788,-0.0511 0.0795,-0.05 0.0802,-0.0489 0.0371,-0.0227 0.0184,-0.0116 0.0182,-0.0117 0.0181,-0.0119 0.0179,-0.0121 0.0179,-0.0124 0.0178,-0.0126 0.0207,-0.0145 0.0209,-0.014 0.0211,-0.0136 0.0213,-0.0131 0.0215,-0.0129 0.0217,-0.0126 0.044,-0.0249 0.0383,-0.0219 0.038,-0.0225 0.0752,-0.0461 0.0747,-0.0471 0.0744,-0.0476 0.102,-0.0647 0.103,-0.0662 0.1028,-0.0667 0.0615,-0.0395 0.0616,-0.0392 0.1237,-0.0779 0.0543,-0.0347 0.054,-0.0351 0.0537,-0.0356 0.0535,-0.0359 0.0322,-0.0215 0.0325,-0.0212 0.0325,-0.0208 0.0328,-0.0205 0.0661,-0.0402 0.0668,-0.0393 0.0527,-0.0287 0.0412,-0.023 0.0174,-0.0101 0.0158,-0.0097 0.0146,-0.0094 0.0139,-0.0094 0.0135,-0.0099 0.0137,-0.0106 0.0142,-0.0115 0.0152,-0.0128 0.0349,-0.0307 0.0439,-0.0395 0.001,-0.0104 8e-4,-0.0082 2e-4,-0.0036 2e-4,-0.0032 v -0.003 l -1e-4,-0.003 -2e-4,-0.003 -4e-4,-0.003 -4e-4,-0.0033 -7e-4,-0.0035 -0.002,-0.0082 -0.002,-0.0104 -0.01,-0.0563 -0.0187,0.0034 -0.0181,0.0038 -0.0176,0.0043 -0.0172,0.0047 -0.0168,0.0052 -0.0165,0.0056 -0.0163,0.006 -0.016,0.0065 -0.0159,0.0068 -0.0158,0.0073 -0.0315,0.0156 -0.0317,0.0172 -0.0325,0.0187 -0.0405,0.0233 -0.0399,0.0235 -0.0396,0.0237 -0.0785,0.0485 -0.0778,0.0496 -0.0772,0.0506 -0.0441,0.0286 -0.0443,0.0283 -0.0889,0.0562 -0.0698,0.0446 -0.0695,0.0449 -0.0692,0.0455 -0.0688,0.0459 -0.0198,0.0132 -0.0199,0.0129 -0.04,0.0254 -0.0404,0.0248 -0.0409,0.0242 -0.0281,0.0174 -0.028,0.0178 -0.0277,0.018 -0.0277,0.0182 -0.0487,0.0315 -0.049,0.0309 -0.0493,0.0303 -0.0496,0.0298 -0.1,0.0584 -0.1008,0.0572 -0.0614,0.0347 -0.0613,0.0351 -0.001,-0.033 -0.002,-0.027 -0.002,-0.0262 -0.003,-0.0255 -0.004,-0.0247 -0.004,-0.0241 -0.005,-0.0234 -0.006,-0.0229 -0.007,-0.0224 -0.008,-0.0219 -0.01,-0.0215 -0.0109,-0.0212 -0.0123,-0.0209 -0.0137,-0.0207 -0.0153,-0.0204 -0.0168,-0.0204 -0.0184,-0.0202 -0.0196,-0.0159 -0.0202,-0.0147 -0.0208,-0.0136 -0.0213,-0.0127 -0.0219,-0.0118 -0.0222,-0.0109 -0.0227,-0.0102 -0.023,-0.0095 -0.0233,-0.0089 -0.0236,-0.0083 -0.0476,-0.0154 -0.0481,-0.014 -0.048,-0.0134 v -0.0396 l 0.0157,-0.0136 0.0163,-0.0129 0.0168,-0.0124 0.0172,-0.0118 0.0177,-0.011 0.0181,-0.0103 0.0185,-0.0095 0.0188,-0.0087 0.0192,-0.0079 0.0195,-0.0069 0.0198,-0.0059 0.0201,-0.0049 0.0203,-0.0038 0.0205,-0.0027 0.0207,-0.0015 0.0209,-3e-4 0.0118,0.0022 0.0116,0.0028 0.0114,0.0033 0.0112,0.0037 0.0111,0.0041 0.0109,0.0045 0.0108,0.0049 0.0107,0.0051 0.0211,0.0109 0.0208,0.0116 0.0414,0.0238 0.0734,0.0405 0.0324,0.0183 0.0142,0.0066 0.0146,0.0059 0.0148,0.0051 0.0151,0.0045 0.0153,0.0036 0.0154,0.003 0.0156,0.0022 0.0157,0.0016 0.0158,8e-4 h 0.0157 l 0.0158,-6e-4 0.0157,-0.0013 0.0156,-0.0021 0.0155,-0.0027 0.0154,-0.0035 0.0151,-0.0041 0.0114,-0.0054 0.0108,-0.0055 0.0102,-0.0057 0.01,-0.0059 0.009,-0.0062 0.009,-0.0064 0.008,-0.0068 0.008,-0.0071 0.007,-0.0076 0.007,-0.0079 0.007,-0.0084 0.007,-0.009 0.006,-0.0094 0.006,-0.01 0.006,-0.0107 0.006,-0.0112 0.006,-0.0201 0.004,-0.0198 0.003,-0.0196 0.002,-0.0194 5e-4,-0.0192 -6e-4,-0.019 -0.002,-0.019 -0.003,-0.0188 -0.004,-0.0187 -0.005,-0.0187 -0.005,-0.0187 -0.006,-0.0186 -0.007,-0.0186 -0.007,-0.0187 -0.0162,-0.0374 -0.0197,-0.0332 -0.02,-0.033 0.0468,-0.0239 0.0469,-0.0232 0.0471,-0.0225 0.0473,-0.0218 0.0477,-0.0211 0.048,-0.0205 0.0485,-0.0198 0.0489,-0.0191 0.0267,-0.0103 0.1397,-0.0513 0.1415,-0.0467 0.143,-0.0414 0.072,-0.0186 0.0724,-0.017 0.0727,-0.0153 0.073,-0.0136 0.0734,-0.0117 0.0736,-0.0098 0.0738,-0.0078 0.0741,-0.0057 0.0744,-0.0035 0.0745,-0.0012 0.0458,-5e-4 z"
       id="path10" />
    <path
       style="fill:#ffffff;fill-opacity:1;fill-rule:evenodd;stroke:none"
       d="m 140.3279,84.5613 0.0125,0.0024 0.029,0.0077 0.008,0.006 0.006,0.0049 0.003,0.0022 0.003,0.0022 0.003,0.0022 0.002,0.0023 0.003,0.0024 0.003,0.0027 0.007,0.0064 0.008,0.0083 0.0107,0.0107 0.0109,0.0087 0.0114,0.0081 0.0118,0.0075 0.0122,0.007 0.0257,0.0123 0.027,0.0104 0.0282,0.0086 0.0292,0.007 0.0299,0.0056 0.0305,0.0044 0.0308,0.0034 0.031,0.0026 0.0614,0.0034 0.0595,0.0025 0.0559,0.003 0.0458,0.0036 0.043,0.0046 0.0206,0.003 0.02,0.0035 0.0197,0.0041 0.0193,0.0049 0.0189,0.0058 0.0187,0.0067 0.0186,0.0078 0.0184,0.0089 0.0184,0.0102 0.0184,0.0116 0.0184,0.013 0.0186,0.0145 0.007,0.0089 0.007,0.009 0.007,0.0089 0.006,0.009 0.006,0.0091 0.006,0.0092 0.005,0.0094 0.005,0.0095 0.004,0.0097 0.004,0.0099 0.003,0.0102 0.003,0.0104 0.002,0.0107 0.002,0.011 0.001,0.0113 4e-4,0.0118 -0.004,0.0065 -0.004,0.006 -0.004,0.0055 -0.004,0.005 -0.004,0.0045 -0.004,0.0042 -0.004,0.0039 -0.005,0.0036 -0.005,0.0033 -0.005,0.0031 -0.005,0.003 -0.006,0.0029 -0.006,0.0028 -0.006,0.0028 -0.0137,0.0057 -0.017,-2e-4 -0.0166,-0.001 -0.0163,-0.0019 -0.0161,-0.0026 -0.0158,-0.0033 -0.0157,-0.004 -0.0154,-0.0046 -0.0153,-0.0051 -0.0152,-0.0055 -0.0151,-0.0059 -0.0301,-0.0128 -0.0605,-0.0275 -0.0105,-0.0044 -0.0103,-0.0041 -0.0101,-0.0037 -0.01,-0.0034 -0.01,-0.003 -0.01,-0.0027 -0.01,-0.0025 -0.01,-0.0021 -0.01,-0.0019 -0.01,-0.0016 -0.0101,-0.0013 -0.0102,-0.0011 -0.0105,-9e-4 -0.0107,-7e-4 -0.0225,-8e-4 -0.0413,-0.0011 -0.0445,-0.0011 -0.0925,-0.0038 -0.0922,-0.0055 -0.046,-0.0035 -0.046,-0.004 -0.046,-0.0045 -0.046,-0.0052 -0.0407,-0.0045 -0.0299,-0.0042 -0.0293,-0.0048 -0.0289,-0.0057 -0.0285,-0.0065 -0.0284,-0.0074 -0.0282,-0.0084 -0.0282,-0.0093 -0.0283,-0.0103 v -0.0176 l 3e-4,-0.0135 3e-4,-0.0055 4e-4,-0.0049 7e-4,-0.0043 8e-4,-0.004 0.001,-0.0036 0.001,-0.0035 0.002,-0.0034 0.002,-0.0034 0.002,-0.0037 0.003,-0.0039 0.007,-0.0091 0.0708,-0.0705 0.0543,-0.0527 0.0221,-0.0204 0.0192,-0.0167 0.0168,-0.0134 0.0149,-0.0103 0.0135,-0.0075 0.006,-0.0028 0.006,-0.0022 0.006,-0.0016 0.006,-0.0011 0.006,-6e-4 0.006,-2e-4 z"
       id="path11" />
    <path
       style="fill:#ffffff;fill-opacity:1;fill-rule:evenodd;stroke:none"
       d="m 140.1705,84.677 0.002,0.0066 0.002,0.0054 0.001,0.005 0.001,0.0051 0.001,0.006 0.003,0.0166 -0.0143,0.0157 -0.005,0.0057 -0.005,0.0051 -0.005,0.005 -0.006,0.0057 -0.0171,0.0157 -0.009,0.0161 -0.003,0.0058 -0.003,0.0051 -0.002,0.005 -0.002,0.0056 -0.003,0.0068 -0.004,0.0085 -0.0132,0.0265 -0.0529,-0.0265 0.004,-0.0083 0.004,-0.0081 0.004,-0.0077 0.004,-0.0074 0.004,-0.0071 0.005,-0.0069 0.005,-0.0067 0.005,-0.0066 0.005,-0.0064 0.005,-0.0063 0.006,-0.0063 0.006,-0.0062 0.012,-0.0124 0.0129,-0.0127 0.029,-0.0283 0.0222,-0.0213 z"
       id="path12" />
    <path
       style="fill:#ffffff;fill-opacity:1;fill-rule:evenodd;stroke:none"
       d="M 137.2574,85.7668 V 85.78 h -0.1323 l -0.0132,0.0265 -0.0397,-0.0662 z"
       id="path13" />
    <path
       style="fill:#ffffff;fill-opacity:1;fill-rule:evenodd;stroke:none"
       d="m 140.6309,85.9652 -0.0926,0.0662 -0.0265,-0.0132 0.006,-0.0066 0.005,-0.0052 0.004,-0.0043 0.002,-0.0019 0.002,-0.0019 0.004,-0.0038 0.005,-0.0042 0.006,-0.0052 0.007,-0.0066 h 0.0397 l 0.0132,-0.0397 z"
       id="path14" />
    <path
       style="fill:#ffffff;fill-opacity:1;fill-rule:evenodd;stroke:none"
       d="m 138.6561,85.3184 0.007,0.0011 0.006,0.0011 0.003,6e-4 0.002,6e-4 0.002,6e-4 0.002,7e-4 0.005,0.0018 0.006,0.0023 0.008,0.003 -0.0794,0.0662 -0.0132,-0.0397 0.006,-0.0069 0.004,-0.0053 0.002,-0.0023 0.002,-0.0021 0.002,-0.002 0.002,-0.0019 0.002,-0.0018 0.002,-0.0019 0.002,-0.002 0.002,-0.0022 0.006,-0.005 0.008,-0.0063 z"
       id="path15" />
    <path
       style="fill:#ffffff;fill-opacity:1;fill-rule:evenodd;stroke:none"
       d="m 141.4598,82.3228 0.004,0.0036 0.003,0.0033 0.003,0.003 0.002,0.0027 0.002,0.0026 8e-4,0.0013 8e-4,0.0012 6e-4,0.0013 6e-4,0.0013 6e-4,0.0013 5e-4,0.0013 5e-4,0.0014 4e-4,0.0014 7e-4,0.003 6e-4,0.0034 6e-4,0.0037 0.001,0.0091 -2e-4,0.0315 2e-4,0.0313 -0.001,0.0097 -6e-4,0.004 -6e-4,0.0037 -7e-4,0.0034 -9e-4,0.0032 -0.001,0.0032 -0.001,0.0031 -0.002,0.0033 -0.002,0.0036 -0.002,0.0038 -0.003,0.0043 -0.003,0.0048 -0.004,0.0054 -0.009,0.0132 -0.004,-0.0389 -0.004,-0.0388 -0.004,-0.0437 -5e-4,-0.0124 -1e-4,-0.0051 -1e-4,-0.0045 1e-4,-0.004 1e-4,-0.0036 3e-4,-0.0033 5e-4,-0.0031 6e-4,-0.0029 9e-4,-0.0029 0.001,-0.003 0.001,-0.0031 0.001,-0.0034 0.002,-0.0037 0.004,-0.0088 z"
       id="path16" />
    <path
       style="fill:#ffffff;fill-opacity:1;fill-rule:evenodd;stroke:none"
       d="m 137.5106,86.7224 0.0581,0.0044 0.0578,0.0084 0.0573,0.0123 0.0566,0.0162 0.0558,0.0201 0.0547,0.0241 0.0536,0.0279 0.0522,0.0319 0.021,0.0155 0.0209,0.0161 0.0206,0.0167 0.0203,0.0173 0.0197,0.018 0.0192,0.0187 0.0184,0.0193 0.0176,0.02 0.0166,0.0208 0.0155,0.0214 0.0143,0.0221 0.013,0.0229 0.0115,0.0236 0.005,0.0121 0.005,0.0123 0.004,0.0125 0.004,0.0126 0.003,0.0129 0.003,0.0131 0.002,0.0166 0.001,0.0166 0.001,0.0167 0.001,0.0167 0.007,0.0858 0.005,0.0421 0.006,0.0414 0.007,0.0408 0.009,0.0401 0.0102,0.0394 0.0119,0.0386 0.0137,0.038 0.0159,0.0371 0.018,0.0363 0.0204,0.0355 0.023,0.0346 0.0257,0.0337 0.0285,0.0328 0.0316,0.0318 0.0273,0.0212 0.0278,0.0191 0.0281,0.0173 0.0286,0.0154 0.0289,0.0137 0.0293,0.0121 0.0298,0.0105 0.0301,0.0091 0.0307,0.0076 0.031,0.0064 0.0315,0.0052 0.032,0.004 0.0324,0.0029 0.0329,0.0021 0.0335,0.0011 0.0339,3e-4 0.0412,1e-4 0.0349,-6e-4 0.0346,-0.0014 0.0343,-0.002 0.0341,-0.0026 0.0341,-0.0033 0.0342,-0.0039 0.0343,-0.0044 0.0346,-0.0049 0.043,-0.0045 0.0433,-0.0028 0.0434,-0.0015 0.0434,-3e-4 0.0436,4e-4 0.0435,8e-4 0.0866,0.002 -0.0181,0.0272 -0.0193,0.0264 -0.0205,0.0254 -0.0216,0.0245 -0.0227,0.0237 -0.0237,0.0228 -0.0246,0.022 -0.0256,0.0211 -0.0535,0.04 -0.0566,0.037 -0.059,0.0341 -0.0611,0.0314 -0.0628,0.0289 -0.064,0.0264 -0.0647,0.0241 -0.0651,0.022 -0.065,0.02 -0.0645,0.0182 -0.1256,0.0315 -0.0482,0.0101 -0.0482,0.0093 -0.0483,0.0086 -0.0486,0.0077 -0.0459,0.007 -0.0526,0.0067 -0.0524,0.0054 -0.0524,0.0042 -0.0523,0.0031 -0.0525,0.0022 -0.0525,0.0013 -0.0527,7e-4 h -0.053 l -0.0343,-10e-5 -0.1241,-0.0015 -0.0617,-0.0021 -0.0615,-0.0035 -0.0613,-0.0054 -0.0611,-0.0077 -0.0305,-0.0047 -0.0305,-0.0055 -0.0304,-0.0063 -0.0304,-0.007 -0.0266,-0.0065 -0.0236,-0.0062 -0.0234,-0.0067 -0.0233,-0.007 -0.0231,-0.0074 -0.023,-0.0077 -0.0229,-0.008 -0.0458,-0.0167 -0.0323,-0.0119 -0.0461,-0.0178 -0.0469,-0.0193 -0.0473,-0.0208 -0.0475,-0.0224 -0.0474,-0.0239 -0.0469,-0.0256 -0.0463,-0.0271 -0.0452,-0.0289 -0.044,-0.0305 -0.0423,-0.0322 -0.0405,-0.034 -0.0384,-0.0358 -0.0359,-0.0376 -0.0331,-0.0395 -0.0301,-0.0414 -0.0268,-0.0432 -0.004,-0.01 -0.004,-0.0097 -0.003,-0.0097 -0.003,-0.0095 -0.002,-0.0095 -0.002,-0.0094 -0.001,-0.0094 -0.001,-0.0095 -7e-4,-0.0095 -4e-4,-0.0095 -1e-4,-0.0097 2e-4,-0.0098 4e-4,-0.01 7e-4,-0.0101 0.002,-0.021 0.009,-0.0131 0.004,-0.0054 0.003,-0.0046 0.003,-0.0041 0.003,-0.0035 0.003,-0.003 0.003,-0.0026 0.003,-0.0023 0.003,-0.002 0.003,-0.0019 0.003,-0.0018 0.003,-0.0018 0.004,-0.0018 0.009,-0.0042 h 0.007 l 0.008,3e-4 0.0148,0.0015 0.0145,0.0027 0.0144,0.0037 0.0141,0.0048 0.0139,0.0055 0.0136,0.0064 0.0134,0.0072 0.0131,0.0077 0.0128,0.0083 0.0125,0.0088 0.0122,0.0092 0.0119,0.0095 0.0116,0.0097 0.0222,0.0197 0.0151,0.0202 0.0142,0.0179 0.015,0.0171 0.0158,0.0164 0.0167,0.0158 0.0174,0.0151 0.0181,0.0145 0.0381,0.0272 0.0405,0.025 0.0424,0.0228 0.044,0.0209 0.0453,0.0193 0.0461,0.0176 0.0468,0.0162 0.0469,0.0151 0.0468,0.014 0.1787,0.0489 0.0284,0.0079 0.0617,0.0164 0.0296,0.0069 0.0289,0.006 0.0285,0.005 0.0281,0.0039 0.0277,0.0026 0.0276,0.0012 0.0276,-2e-4 0.0276,-0.0017 0.0278,-0.0033 0.0281,-0.0051 0.0285,-0.0069 0.0291,-0.0088 0.0298,-0.0109 0.0305,-0.013 0.0397,-0.0265 -0.003,-0.0135 -0.001,-0.0055 -0.001,-0.0047 -0.001,-0.0042 -0.001,-0.0036 -8e-4,-0.0016 -7e-4,-0.0015 -8e-4,-0.0014 -9e-4,-0.0013 -9e-4,-0.0012 -0.001,-0.0012 -0.001,-0.001 -10e-4,-0.0011 -0.001,-0.001 -0.001,-10e-4 -0.003,-0.0019 -0.004,-0.0019 -0.004,-0.0019 -0.01,-0.0045 -0.0326,-0.0121 -0.0326,-0.0109 -0.0326,-0.0098 -0.0328,-0.009 -0.0329,-0.0082 -0.0333,-0.0074 -0.0337,-0.007 -0.0341,-0.0064 -0.1058,-0.0212 -0.0805,-0.0174 -0.0324,-0.0081 -0.0279,-0.008 -0.024,-0.0082 -0.0207,-0.0087 -0.0181,-0.0094 -0.016,-0.0106 -0.0145,-0.0118 -0.0137,-0.0135 -0.0134,-0.0154 -0.0138,-0.0176 -0.031,-0.0428 -0.007,-0.0132 -0.006,-0.0133 -0.006,-0.0134 -0.005,-0.0136 -0.005,-0.0137 -0.004,-0.0138 -0.003,-0.0139 -0.003,-0.014 -0.002,-0.0141 -10e-4,-0.0143 -0.001,-0.0143 -3e-4,-0.0145 4e-4,-0.0145 0.001,-0.0147 0.002,-0.0147 0.002,-0.0149 0.008,-0.0219 0.009,-0.0214 0.01,-0.0209 0.0105,-0.0202 0.0115,-0.0197 0.0124,-0.019 0.0132,-0.0183 0.0141,-0.0176 0.0149,-0.0169 0.0157,-0.0161 0.0166,-0.0153 0.0175,-0.0145 0.0182,-0.0137 0.0191,-0.0128 0.0198,-0.0119 0.0207,-0.011 0.0161,-0.0058 0.016,-0.0049 0.0161,-0.0039 0.016,-0.0032 0.016,-0.0023 0.016,-0.0016 0.016,-8e-4 0.0161,-2e-4 0.016,4e-4 0.0162,9e-4 0.0162,0.0015 0.0162,0.0019 0.0163,0.0024 0.0165,0.0027 0.0331,0.0063 -4e-4,-0.0161 -8e-4,-0.0153 -7e-4,-0.0075 -8e-4,-0.0073 -0.001,-0.0072 -0.001,-0.0071 -0.002,-0.0069 -0.002,-0.0069 -0.003,-0.0068 -0.003,-0.0068 -0.003,-0.0067 -0.004,-0.0067 -0.004,-0.0066 -0.005,-0.0067 -0.009,-0.0079 -0.009,-0.0077 -0.009,-0.0074 -0.009,-0.0071 -0.009,-0.007 -0.01,-0.0069 -0.01,-0.0067 -0.01,-0.0067 -0.0252,-0.0167 -0.0198,-0.0099 -0.0203,-0.0085 -0.0209,-0.0072 -0.0212,-0.006 -0.0217,-0.0047 -0.022,-0.0036 -0.0222,-0.0026 -0.0224,-0.0015 -0.0225,-5e-4 -0.0225,3e-4 -0.0225,0.0012 -0.0225,0.0019 -0.0222,0.0026 -0.022,0.0033 -0.0218,0.0038 -0.0213,0.0044 -0.022,0.0077 -0.0214,0.0084 -0.0208,0.0091 -0.0202,0.0098 -0.0195,0.0105 -0.0189,0.0113 -0.0183,0.012 -0.0176,0.0129 -0.017,0.0136 -0.0162,0.0145 -0.0157,0.0154 -0.0149,0.0163 -0.0143,0.0171 -0.0135,0.0181 -0.0128,0.019 -0.0122,0.02 -0.01,0.0216 -0.003,0.0076 -0.003,0.0065 -0.002,0.0061 -0.002,0.0066 -0.006,0.0177 -0.0277,-0.0023 -0.0129,-0.0014 -0.0123,-0.0018 -0.0119,-0.002 -0.0115,-0.0024 -0.0112,-0.0029 -0.0109,-0.0033 -0.0107,-0.0039 -0.0106,-0.0044 -0.0106,-0.0051 -0.0106,-0.0058 -0.0108,-0.0064 -0.0109,-0.0073 -0.0111,-0.0081 -0.0115,-0.009 -0.007,-0.0107 -0.006,-0.0107 -0.005,-0.0106 -0.005,-0.0106 -0.004,-0.0105 -0.003,-0.0107 -0.003,-0.0107 -0.002,-0.0107 -0.002,-0.0109 -0.001,-0.011 -5e-4,-0.0112 -1e-4,-0.0114 5e-4,-0.0116 9e-4,-0.0118 0.001,-0.0122 0.002,-0.0124 0.008,-0.028 0.009,-0.0272 0.0108,-0.0262 0.0119,-0.0254 0.0132,-0.0244 0.0143,-0.0237 0.0154,-0.0227 0.0165,-0.022 0.0177,-0.0211 0.0186,-0.0203 0.0197,-0.0196 0.0207,-0.0188 0.0216,-0.0181 0.0225,-0.0173 0.0235,-0.0166 0.0243,-0.016 0.0545,-0.0272 0.0555,-0.0232 0.0564,-0.0193 0.0572,-0.0153 0.0577,-0.0114 0.058,-0.0074 0.0583,-0.0035 z"
       id="path17" />
    <path
       style="fill:#ffffff;fill-opacity:1;fill-rule:evenodd;stroke:none"
       d="m 137.1599,85.7527 0.0493,0.007 0.0319,0.0048 0.0319,0.005 0.0319,0.0052 0.0319,0.0053 v 0.0133 h -0.172 l 0.0133,0.0529 -0.009,-0.0038 -0.008,-0.0041 -0.008,-0.0043 -0.008,-0.0045 -0.007,-0.0048 -0.007,-0.0051 -0.006,-0.0053 -0.006,-0.0056 -0.006,-0.0058 -0.006,-0.0062 -0.006,-0.0064 -0.006,-0.0067 -0.006,-0.0071 -0.006,-0.0073 -0.0114,-0.0156 v -0.0133 z"
       id="path18" />
    <path
       style="fill:#ffffff;fill-opacity:1;fill-rule:evenodd;stroke:none"
       d="m 138.2628,83.5575 -0.0132,0.0265 -0.0271,0.0049 -0.0272,0.0041 -0.0273,0.0032 -0.0274,0.0024 -0.0275,0.0016 -0.0274,9e-4 -0.0275,1e-4 -0.0275,-7e-4 -0.0275,-0.0014 -0.0274,-0.0021 -0.0274,-0.0027 -0.0273,-0.0035 -0.0272,-0.0041 -0.0271,-0.0047 -0.0269,-0.0053 -0.0268,-0.0059 -1e-4,-0.0265 z"
       id="path19" />
    <path
       style="fill:#ffffff;fill-opacity:1;fill-rule:evenodd;stroke:none"
       d="m 137.0854,86.8516 -0.0926,0.0794 -0.0132,-0.0265 0.0662,-0.0661 z"
       id="path20" />
    <path
       style="fill:#ffffff;fill-opacity:1;fill-rule:evenodd;stroke:none"
       d="m 138.1967,87.1691 0.001,0.029 4e-4,0.0224 -1e-4,0.0091 -4e-4,0.0081 -7e-4,0.0072 -0.001,0.0065 -0.001,0.0059 -0.002,0.0057 -0.002,0.0056 -0.003,0.0056 -0.003,0.0059 -0.004,0.0064 -0.01,0.0149 -0.005,-0.029 -0.002,-0.0119 -0.002,-0.0105 -0.001,-0.0091 -7e-4,-0.0081 -2e-4,-0.0072 4e-4,-0.0065 9e-4,-0.006 10e-4,-0.0056 0.002,-0.0056 0.003,-0.0056 0.003,-0.0059 0.004,-0.0064 0.01,-0.0149 z"
       id="path21" />
    <path
       style="fill:#ffffff;fill-opacity:1;fill-rule:evenodd;stroke:none"
       d="m 139.6519,82.1949 -0.0397,0.0926 -0.0196,-0.0182 -0.007,-0.0068 -0.006,-0.0062 -0.006,-0.0064 -0.007,-0.0075 -0.0196,-0.021 v -0.0397 z"
       id="path22" />
    <path
       style="fill:#ffffff;fill-opacity:1;fill-rule:evenodd;stroke:none"
       d="m 138.5935,87.4811 -4e-4,0.0074 -5e-4,0.0071 -8e-4,0.0068 -0.001,0.0065 -0.001,0.0064 -0.001,0.0063 -0.002,0.0062 -0.002,0.0061 -0.002,0.0061 -0.002,0.0062 -0.002,0.0062 -0.005,0.0129 -0.006,0.0139 -0.0264,-0.0265 0.003,-0.0205 0.001,-0.0074 0.001,-0.0064 0.001,-0.0062 0.002,-0.0069 0.005,-0.0187 0.0397,-0.0132 z"
       id="path23" />
    <path
       style="fill:#ffffff;fill-opacity:1;fill-rule:evenodd;stroke:none"
       d="m 139.2021,83.412 -0.0794,0.0132 0.0257,-0.0231 0.005,-0.0054 0.004,-0.005 0.004,-0.0049 0.004,-0.0046 0.003,-0.0046 0.003,-0.0044 0.003,-0.0045 0.002,-0.0045 0.002,-0.0046 0.002,-0.0048 0.002,-0.005 0.001,-0.0053 0.001,-0.0056 10e-4,-0.006 0.001,-0.0065 0.001,-0.007 h 0.0132 z"
       id="path24" />
    <path
       style="fill:#ffffff;fill-opacity:1;fill-rule:evenodd;stroke:none"
       d="m 139.8585,85.5607 0.01,0.0018 0.0217,0.0059 0.0181,0.0189 0.005,0.0045 0.005,0.0042 0.005,0.0039 0.005,0.0035 0.005,0.0033 0.005,0.003 0.005,0.0028 0.005,0.0026 0.005,0.0025 0.005,0.0023 0.005,0.0022 0.006,0.0022 0.0115,0.0042 0.0124,0.0044 0.0396,0.0139 0.0225,0.0071 0.0225,0.0068 0.0226,0.0065 0.0227,0.0063 0.0308,0.009 0.0303,0.0098 0.0299,0.0105 0.0294,0.0112 0.029,0.0118 0.0287,0.0125 0.0566,0.0265 0.0558,0.0284 0.0553,0.0298 0.1105,0.0629 0.055,0.0313 0.0376,0.0216 -0.0184,0.0149 -0.0185,0.0146 -0.0188,0.0142 -0.0189,0.0141 -0.0191,0.0137 -0.0193,0.0136 -0.0194,0.0133 -0.0197,0.0132 -0.0256,0.0171 -0.0649,0.0421 -0.0653,0.0413 -0.1316,0.0813 -0.0639,0.0399 -0.0634,0.0406 -0.063,0.0413 -0.0626,0.0418 -0.1061,0.0704 -0.1069,0.0691 -0.2151,0.1361 -0.0571,0.0362 -0.0568,0.0365 -0.1133,0.0736 -0.0766,0.0496 -0.077,0.049 -0.0773,0.0484 -0.0776,0.048 -0.102,0.0634 -0.1014,0.0642 -0.1707,0.1084 -0.0543,0.0334 -0.039,0.0223 -0.0151,0.0077 -0.0128,0.0059 -0.011,0.0041 -0.01,0.0028 -0.009,0.0017 -0.009,9e-4 -0.019,3e-4 -0.003,-0.0242 -0.0137,-0.0853 -0.008,-0.04 -0.009,-0.0383 -0.01,-0.0368 -0.0109,-0.0355 -0.0124,-0.0343 -0.014,-0.0331 -0.016,-0.0322 -0.018,-0.0313 -0.0203,-0.0306 -0.0228,-0.0301 -0.0255,-0.0296 -0.0284,-0.0293 -0.0315,-0.0291 -0.0348,-0.0291 0.004,-0.0089 0.004,-0.0083 0.004,-0.0078 0.004,-0.0075 0.005,-0.007 0.005,-0.0067 0.005,-0.0063 0.005,-0.0062 0.005,-0.0059 0.006,-0.0059 0.006,-0.0057 0.006,-0.0056 0.007,-0.0057 0.007,-0.0057 0.0147,-0.0118 0.0395,-0.0315 0.0218,-0.0172 0.025,-0.02 0.0249,-0.0201 0.0496,-0.0406 0.1406,-0.1132 0.1421,-0.111 0.1437,-0.109 0.1454,-0.1071 0.0285,-0.0207 0.0595,-0.0426 0.06,-0.0418 0.0605,-0.0411 0.0608,-0.0404 0.1228,-0.0794 0.1238,-0.078 0.0397,-0.0247 0.088,-0.0548 0.067,-0.0409 0.0497,-0.0288 0.0197,-0.0104 0.0167,-0.0081 0.0144,-0.0058 0.0126,-0.0039 0.0111,-0.0022 0.0102,-6e-4 z"
       id="path25" />
    <path
       style="fill:#ffffff;fill-opacity:1;fill-rule:evenodd;stroke:none"
       d="m 136.9928,86.9045 -0.006,0.009 -0.006,0.0085 -0.006,0.0079 -0.006,0.0074 -0.006,0.007 -0.006,0.0065 -0.006,0.0061 -0.007,0.0058 -0.007,0.0053 -0.007,0.005 -0.008,0.0047 -0.008,0.0044 -0.009,0.0041 -0.009,0.0038 -0.01,0.0037 -0.0106,0.0034 0.0388,-0.0455 0.0219,-0.0255 0.008,-0.0089 0.008,-0.0088 0.004,-0.0044 0.004,-0.0043 0.004,-0.0042 0.004,-0.0042 z"
       id="path26" />
    <path
       style="fill:#ffffff;fill-opacity:1;fill-rule:evenodd;stroke:none"
       d="m 136.444,87.3192 0.007,3e-4 0.007,6e-4 0.0142,0.0017 0.0153,0.0026 0.0166,0.0034 0.0129,0.0088 0.0118,0.0084 0.006,0.0041 0.005,0.0043 0.005,0.0042 0.005,0.0045 0.005,0.0046 0.005,0.0048 0.004,0.005 0.004,0.0054 0.004,0.0057 0.004,0.0061 0.004,0.0065 0.004,0.007 9e-4,0.0121 5e-4,0.0115 3e-4,0.011 v 0.0106 l -5e-4,0.0102 -8e-4,0.0098 -0.001,0.0096 -0.002,0.0094 -0.002,0.0092 -0.003,0.0092 -0.004,0.0091 -0.004,0.0091 -0.005,0.0092 -0.006,0.0094 -0.006,0.0095 -0.007,0.0099 -0.009,0.0043 -0.009,0.0036 -0.01,0.0031 -0.01,0.0025 -0.01,0.0019 -0.01,0.0015 -0.01,0.001 -0.01,6e-4 -0.01,3e-4 -0.0102,-1e-4 -0.0101,-4e-4 -0.0101,-7e-4 -0.0204,-0.0019 -0.0202,-0.0025 -0.0137,-0.0085 -0.006,-0.0037 -0.005,-0.0033 -0.004,-0.003 -0.004,-0.003 -0.004,-0.003 -0.003,-0.003 -0.003,-0.0032 -0.003,-0.0035 -0.003,-0.0038 -0.003,-0.0043 -0.003,-0.0049 -0.004,-0.0055 -0.008,-0.0134 -0.002,-0.0078 -0.001,-0.0076 -10e-4,-0.0076 -0.001,-0.0074 -8e-4,-0.0074 -6e-4,-0.0073 -3e-4,-0.0073 -2e-4,-0.0072 1e-4,-0.0073 3e-4,-0.0072 5e-4,-0.0073 8e-4,-0.0074 0.001,-0.0074 0.001,-0.0075 0.001,-0.0077 0.002,-0.0077 0.0107,-0.0132 0.0104,-0.0119 0.01,-0.0104 0.005,-0.0047 0.005,-0.0044 0.005,-0.0041 0.005,-0.0037 0.005,-0.0034 0.005,-0.0032 0.005,-0.0028 0.005,-0.0026 0.005,-0.0022 0.005,-0.002 0.005,-0.0017 0.005,-0.0014 0.005,-0.0011 0.006,-9e-4 0.006,-7e-4 0.006,-4e-4 0.006,-10e-5 z"
       id="path27" />
  </g>
  <metadata
     id="metadata146">
    <rdf:RDF>
      <cc:Work
         rdf:about="">
        <dc:title>SVG Image created as mini-receiver-B_Silkscreen.svg date 2025/05/27 13:08:58 </dc:title>
      </cc:Work>
    </rdf:RDF>
  </metadata>
</svg>
